<svg width="34" height="24" viewBox="0 0 34 24" fill="none" xmlns="http://www.w3.org/2000/svg">
<rect x="0.5" y="0.5" width="33" height="23" rx="3.5" fill="white" stroke="#D9D9D9"/>
<g clip-path="url(#clip0_63_3428)">
<path d="M22.988 9.37271C22.9694 9.2201 22.8924 9.08392 22.7712 8.9893L19.0976 6.12154C18.848 5.92662 18.4856 5.9709 18.2899 6.22033L14.7312 10.7573L12.3698 12.3382C12.3698 12.3383 12.3698 12.3383 12.3697 12.3383L11.7179 12.7747L11.2627 13.0795C11.2547 13.0849 11.2468 13.0904 11.2391 13.0961C11.124 13.1816 11.0458 13.3051 11.0179 13.4466C10.9882 13.5973 11.0189 13.7504 11.1044 13.8778L11.1047 13.8782C11.1047 13.8783 11.1047 13.8783 11.1047 13.8783L11.656 14.6998L11.847 14.9844L12.9593 16.6419C12.9593 16.6419 12.9594 16.6419 12.9594 16.642L13.1439 16.917L13.7 17.7456C13.8108 17.9107 13.9932 18 14.1788 18C14.2889 18 14.4002 17.9686 14.4984 17.9029L14.4987 17.9026C14.4988 17.9026 14.4988 17.9026 14.4989 17.9025L15.5797 17.1789L16.0571 17.5516C16.1621 17.6335 16.2868 17.6732 16.4107 17.6732C16.5819 17.6732 16.7514 17.5975 16.8649 17.4528L18.7388 15.0639L21.4706 13.235C21.4742 13.2329 21.4779 13.2312 21.4814 13.2289L22.5884 12.4877C22.7164 12.4019 22.8034 12.2716 22.8332 12.1206C22.8629 11.9699 22.8321 11.8168 22.7466 11.6894L22.746 11.6885C22.7459 11.6884 22.7459 11.6882 22.7458 11.6881L22.1191 10.7543L22.8696 9.79756C22.9646 9.67633 23.0067 9.52548 22.988 9.37271ZM12.5559 13.7494C12.4869 14.0991 12.3043 14.4078 12.0357 14.6346L11.4773 13.8025L11.3966 13.6823C11.3634 13.6328 11.3514 13.5731 11.363 13.5145C11.3731 13.4631 11.4003 13.4178 11.4403 13.385C11.446 13.3803 11.452 13.3758 11.4583 13.3716L11.7738 13.1604L12.4113 12.7336C12.5735 13.0452 12.6249 13.3998 12.5559 13.7494ZM14.3029 17.6105C14.2 17.6792 14.0605 17.6519 13.9919 17.5496L13.9842 17.5381L13.3549 16.6003C13.998 16.2668 14.792 16.4212 15.2588 16.9706L14.3029 17.6105ZM16.5883 17.2358C16.512 17.333 16.3707 17.3504 16.2735 17.2744L15.8873 16.9729L17.7977 15.6939L16.5883 17.2358ZM21.2951 11.8178C21.3641 11.468 21.5467 11.1593 21.8153 10.9325L22.4541 11.8844C22.4871 11.9339 22.499 11.9933 22.4875 12.0518C22.4759 12.1106 22.442 12.1613 22.3922 12.1947L21.4393 12.8327C21.2775 12.5213 21.2262 12.167 21.2951 11.8178ZM22.5929 9.58054L21.913 10.4473L20.1505 7.82084C19.9739 7.55762 19.6157 7.48707 19.3521 7.66354L17.7946 8.70628C17.6058 8.83275 17.8013 9.1248 17.9902 8.99844L18.2979 8.79241C18.6686 9.24841 19.2189 9.49309 19.7789 9.49309C20.0904 9.49309 20.4047 9.41708 20.6929 9.26002L21.6185 10.6393C21.2725 10.9195 21.0374 11.3077 20.9502 11.7496C20.863 12.191 20.9327 12.639 21.1458 13.0291L18.5183 14.7882C18.5181 14.7884 18.5178 14.7886 18.5175 14.7888L15.5522 16.7741C14.9752 16.0651 13.964 15.8678 13.1581 16.3071L12.2324 14.9277C12.5784 14.6476 12.8135 14.2593 12.9008 13.8174C12.9879 13.3757 12.9181 12.9275 12.7046 12.5371L17.1736 9.54515C17.3624 9.41867 17.1668 9.12656 16.978 9.25298L15.6721 10.1272L18.5665 6.43732C18.6428 6.3401 18.784 6.32271 18.8813 6.3987L22.5548 9.26644C22.6019 9.30319 22.6318 9.35604 22.6391 9.41532C22.6463 9.47469 22.6299 9.53336 22.5929 9.58054ZM19.5477 7.9568C19.6508 7.88787 19.7904 7.91515 19.8591 8.01756L20.1811 8.49739L20.4962 8.96685C19.853 9.30031 19.059 9.14589 18.5922 8.59659L19.5477 7.9568Z" fill="#84C551"/>
<path d="M15.6395 10.8666C15.127 11.2098 14.7789 11.7318 14.6596 12.3366C14.5402 12.9411 14.6637 13.5559 15.0072 14.0676C15.3518 14.5813 15.8762 14.9293 16.4838 15.0476C16.6999 15.0896 16.7704 14.7452 16.551 14.7025C16.0359 14.6022 15.5913 14.3071 15.2991 13.8717C15.008 13.438 14.9033 12.9169 15.0045 12.4046C15.1056 11.8921 15.4006 11.4496 15.8351 11.1588C16.7319 10.5584 17.9505 10.7987 18.5517 11.6945C18.8428 12.1283 18.9474 12.6493 18.8463 13.1616C18.7451 13.6742 18.4501 14.1166 18.0157 14.4075C17.8447 14.5219 17.6587 14.6083 17.4628 14.6642C17.2442 14.7265 17.3406 15.0645 17.5592 15.0023C17.7904 14.9363 18.0098 14.8345 18.2113 14.6996C18.7238 14.3564 19.0718 13.8344 19.1912 13.2297C19.3105 12.6252 19.1871 12.0104 18.8436 11.4986C18.1345 10.4421 16.6972 10.1585 15.6395 10.8666Z" fill="#84C551"/>
<path d="M19.6027 11.1667C19.6363 11.1667 19.6703 11.157 19.7004 11.1369L20.5279 10.5829C20.6086 10.5288 20.6302 10.4197 20.5762 10.339C20.5222 10.2583 20.413 10.2367 20.3323 10.2907L19.5048 10.8447C19.4241 10.8988 19.4025 11.0079 19.4565 11.0886C19.4904 11.1393 19.546 11.1667 19.6027 11.1667Z" fill="#84C551"/>
<path d="M14.1506 14.4294L13.3231 14.9834C13.2425 15.0374 13.2208 15.1466 13.2748 15.2273C13.3087 15.2779 13.3644 15.3053 13.4211 15.3053C13.4547 15.3053 13.4887 15.2957 13.5187 15.2756L14.3462 14.7215C14.4269 14.6675 14.4485 14.5584 14.3945 14.4777C14.3405 14.397 14.2313 14.3754 14.1506 14.4294Z" fill="#84C551"/>
<path d="M17.5493 14.0545C17.6818 14.252 17.964 14.0416 17.8412 13.8586L17.7465 13.7175C18 13.4563 18.0082 13.0949 17.8929 12.8393C17.7025 12.4173 17.311 12.3825 16.9135 12.4762L16.5147 11.8819C16.6149 11.8494 16.693 11.8579 16.7007 11.8588C16.9245 11.8911 16.9762 11.5456 16.7526 11.5111C16.7404 11.5092 16.5411 11.4809 16.3143 11.5833L16.237 11.4681C16.1103 11.2794 15.8184 11.4752 15.945 11.664L16.0294 11.7897C15.8467 11.9856 15.7939 12.2734 15.8999 12.5212C16.0552 12.8842 16.4031 12.9274 16.753 12.8679L17.2662 13.6326C17.1645 13.6879 17.0826 13.7051 16.9291 13.7069C16.707 13.7096 16.7162 14.0619 16.9333 14.0585C17.1729 14.0556 17.3112 14.0129 17.4626 13.9254L17.5493 14.0545ZM16.4076 12.5426C16.3347 12.5372 16.2623 12.4746 16.2231 12.3829C16.1895 12.3043 16.1778 12.1921 16.2348 12.0957L16.5339 12.5414C16.4888 12.5447 16.4463 12.5454 16.4076 12.5426ZM17.1344 12.7837C17.4238 12.7096 17.5428 12.9182 17.5725 12.9839C17.6281 13.1071 17.6322 13.2744 17.5415 13.412L17.122 12.7869C17.1262 12.7858 17.1302 12.7848 17.1344 12.7837Z" fill="#84C551"/>
</g>
<defs>
<clipPath id="clip0_63_3428">
<rect width="12" height="12" fill="white" transform="translate(11 6)"/>
</clipPath>
</defs>
</svg>
